<?xml version="1.0" encoding="UTF-8"?><svg id="uuid-af683a7a-22a1-46be-9cc4-cd5188fcd513" xmlns="http://www.w3.org/2000/svg" width="217.49" height="221.32" viewBox="0 0 217.49 221.32"><defs><style>.uuid-72d183f5-1955-4b8c-af20-6ceb0c00c78a{fill:#1d1d1b;stroke-width:0px;}</style></defs><path class="uuid-72d183f5-1955-4b8c-af20-6ceb0c00c78a" d="m82.21,196.79l.39-1.49,8.96,2.34-4.01,15.33-1.67-.44,3.62-13.84-7.29-1.91Z"/><path class="uuid-72d183f5-1955-4b8c-af20-6ceb0c00c78a" d="m76.6,198.77c.87-2.42.14-4.34-1.98-5.24-1.3-.55-2.52-.44-3.87.4l-.76-1.42c1.74-1.09,3.43-1.21,5.29-.42,3.18,1.35,4.25,4.3,2.79,7.75-1.44,3.4-4.3,4.75-7.27,3.5-2.9-1.23-3.79-4.11-2.33-7.55l.16-.38,7.96,3.37Zm-.65,1.34l-6.26-2.65c-.58,2.1.03,3.69,1.73,4.41,1.77.75,3.42.04,4.53-1.76Z"/><path class="uuid-72d183f5-1955-4b8c-af20-6ceb0c00c78a" d="m58.52,185.52c1.48-.73,3.18-.66,4.76.3,2.09,1.27,2.52,3.16,1.21,5.31l-3.29,5.44,2.57,1.55-.8,1.31-2.57-1.55-2.53,3.52-1.19-.72,2.24-3.69-4.62-2.8.8-1.31,4.62,2.8,3.2-5.27c.86-1.42.67-2.54-.58-3.3-1.03-.62-2.22-.59-3.3-.06l-.51-1.52Z"/><path class="uuid-72d183f5-1955-4b8c-af20-6ceb0c00c78a" d="m56.69,183.83l-1.61.29c-.05-1.38-.79-2.7-2.16-3.83-1.56-1.28-2.97-1.42-3.73-.49-.58.7-.37,1.43.6,2.48l1.69,1.83c1.52,1.66,1.74,3.14.64,4.47-1.4,1.7-3.64,1.67-5.85-.15-1.52-1.25-2.3-2.68-2.41-4.29l1.61-.26c.03,1.24.67,2.39,1.8,3.32,1.39,1.14,2.7,1.26,3.41.39.55-.67.36-1.42-.61-2.46l-1.7-1.83c-1.52-1.66-1.72-3.16-.61-4.51,1.45-1.76,3.74-1.71,6.18.31,1.69,1.39,2.59,2.97,2.73,4.73Z"/><path class="uuid-72d183f5-1955-4b8c-af20-6ceb0c00c78a" d="m24.32,162.85l9.66-6.54c2.72-1.84,5.23-1.31,7.13,1.49,1.24,1.83,1.52,3.52.83,5.21l-1.54-.43c.49-1.29.29-2.57-.61-3.9-1.31-1.93-2.96-2.19-5.01-.81l-1.61,1.09c1.7-.19,3.07.42,4.05,1.87,1.67,2.46.8,5.37-2.26,7.44-3.06,2.07-6.08,1.8-7.75-.66-1.01-1.49-1.05-3.05-.11-4.65l-1.85,1.25-.92-1.35Zm5.96-1.95l-.44.3c-1.99,1.35-2.62,3.63-1.47,5.32,1.17,1.73,3.29,1.83,5.58.28,2.28-1.55,2.98-3.56,1.81-5.29-1.14-1.69-3.5-1.95-5.48-.6Z"/><path class="uuid-72d183f5-1955-4b8c-af20-6ceb0c00c78a" d="m26.9,154.8c2.25-1.25,2.97-3.18,1.96-5.25-.62-1.27-1.61-1.99-3.17-2.25l.36-1.56c2.03.32,3.38,1.35,4.26,3.16,1.51,3.11.37,6.04-3,7.67-3.33,1.61-6.36.74-7.77-2.15-1.37-2.83-.15-5.58,3.22-7.22l.37-.18,3.77,7.77Zm-1.37.58l-2.97-6.11c-1.82,1.2-2.4,2.79-1.6,4.46.84,1.73,2.55,2.28,4.56,1.65Z"/><path class="uuid-72d183f5-1955-4b8c-af20-6ceb0c00c78a" d="m22.01,132.95c1.6.42,2.82,1.59,3.38,3.36.74,2.33-.18,4.04-2.58,4.8l-6.06,1.93.91,2.86-1.46.47-.91-2.86-4.22.99-.42-1.33,4.12-1.31-1.64-5.15,1.46-.47,1.64,5.15,5.88-1.87c1.58-.5,2.18-1.47,1.73-2.87-.36-1.14-1.29-1.91-2.45-2.22l.61-1.48Z"/><path class="uuid-72d183f5-1955-4b8c-af20-6ceb0c00c78a" d="m5.48,114.43c-.86.02-1.55-.64-1.56-1.51-.02-.86.64-1.55,1.51-1.56.86-.02,1.55.64,1.56,1.51.02.86-.64,1.55-1.51,1.56Zm14.25-7.11l1.54-.03.19,10.13-1.54.03-.08-4.2-8.45.16.07,3.72-1.54.03-.1-5.45,9.98-.18-.08-4.2Z"/><path class="uuid-72d183f5-1955-4b8c-af20-6ceb0c00c78a" d="m14.86,93.95l7.82,1.09-.24,1.71-7.63-1.07c-1.64-.23-2.6.39-2.8,1.84-.28,2,1.34,3.77,3.67,4.1l5.97.83-.24,1.71-11.41-1.6.23-1.62,2.21.31c-1.56-.99-2.21-2.42-1.95-4.22.32-2.31,1.93-3.44,4.38-3.1Z"/><path class="uuid-72d183f5-1955-4b8c-af20-6ceb0c00c78a" d="m21.49,77.34c-3.43-1.5-4.7-4.35-3.4-7.35.81-1.85,2.22-2.86,4.17-3l.22,1.59c-1.38.1-2.38.77-2.92,2-.9,2.07.1,4.03,2.63,5.13,2.53,1.1,4.65.51,5.56-1.58.6-1.39.31-2.69-.84-3.9l1.21-1.04c1.58,1.66,1.97,3.53,1.06,5.62-1.31,2.99-4.23,4.05-7.7,2.53Z"/><path class="uuid-72d183f5-1955-4b8c-af20-6ceb0c00c78a" d="m26.99,65.28c-3.14-1.95-4.04-4.97-2.33-7.72,1.71-2.75,4.81-3.28,7.95-1.33,3.14,1.95,4.04,4.97,2.33,7.72-1.71,2.75-4.81,3.28-7.95,1.33Zm4.69-7.54c-2.32-1.44-4.51-1.19-5.67.66-1.15,1.85-.41,3.93,1.92,5.37s4.51,1.19,5.67-.66c1.15-1.85.41-3.93-1.92-5.37Z"/><path class="uuid-72d183f5-1955-4b8c-af20-6ceb0c00c78a" d="m39.16,44.81l6.04,5.09-1.11,1.32-5.89-4.96c-1.27-1.07-2.41-1.05-3.35.07-1.3,1.54-.87,3.91.92,5.42l4.61,3.88-1.11,1.32-8.81-7.42,1.05-1.25,1.71,1.44c-.79-1.67-.58-3.22.59-4.62,1.5-1.78,3.47-1.88,5.36-.29Z"/><path class="uuid-72d183f5-1955-4b8c-af20-6ceb0c00c78a" d="m53.89,39.26c.26,1.63-.31,3.23-1.69,4.46-1.83,1.63-3.76,1.48-5.43-.4l-4.23-4.75-2.24,2-1.02-1.15,2.24-2-2.62-3.45,1.04-.93,2.87,3.23,4.03-3.59,1.02,1.15-4.03,3.59,4.1,4.61c1.1,1.24,2.23,1.39,3.33.41.9-.8,1.22-1.95,1.03-3.14l1.6-.04Z"/><path class="uuid-72d183f5-1955-4b8c-af20-6ceb0c00c78a" d="m61.02,27.56l4.19,6.33-1.36.9-1.22-1.84c.25,1.85-.46,3.3-2.13,4.4-2.16,1.43-4.2,1.14-5.42-.71s-.64-3.75,1.56-5.21l3.38-2.24-.33-.5c-1.06-1.6-2.38-1.85-4.04-.75-1.26.83-2,1.98-2.09,3.28l-1.63-.25c.15-1.68,1.14-3.23,2.88-4.38,2.5-1.66,4.66-1.35,6.2.97Zm-.17,2.88l-3.28,2.17c-1.34.89-1.71,1.99-1,3.05.69,1.04,1.86,1.16,3.18.28,1.9-1.26,2.33-3.47,1.1-5.51Z"/><path class="uuid-72d183f5-1955-4b8c-af20-6ceb0c00c78a" d="m65.39,27.17c-1.6-3.38-.67-6.37,2.28-7.76,1.82-.86,3.55-.69,5.11.48l-.88,1.34c-1.11-.83-2.3-.98-3.51-.41-2.04.96-2.57,3.1-1.39,5.59,1.18,2.5,3.17,3.44,5.23,2.47,1.37-.65,2-1.82,1.93-3.49h1.6c.1,2.3-.84,3.97-2.9,4.94-2.95,1.39-5.85.27-7.47-3.16Z"/><path class="uuid-72d183f5-1955-4b8c-af20-6ceb0c00c78a" d="m88.9,22.22c-.44,1.59-1.63,2.81-3.39,3.35-2.34.72-4.03-.22-4.77-2.63l-1.86-6.08-2.87.88-.45-1.47,2.87-.88-.94-4.23,1.33-.41,1.26,4.13,5.16-1.58.45,1.47-5.16,1.58,1.8,5.9c.48,1.58,1.45,2.19,2.85,1.76,1.15-.35,1.92-1.27,2.25-2.42l1.47.63Z"/><path class="uuid-72d183f5-1955-4b8c-af20-6ceb0c00c78a" d="m140.07,25.16l-.42,1.48-8.91-2.54,4.34-15.24,1.66.47-3.92,13.76,7.25,2.06Z"/><path class="uuid-72d183f5-1955-4b8c-af20-6ceb0c00c78a" d="m145.72,23.3c-.92,2.4-.24,4.34,1.87,5.28,1.29.58,2.51.5,3.88-.31l.73,1.43c-1.76,1.05-3.46,1.13-5.29.31-3.15-1.42-4.16-4.39-2.63-7.81,1.51-3.37,4.4-4.65,7.34-3.34,2.87,1.29,3.7,4.19,2.17,7.6l-.17.37-7.88-3.54Zm.67-1.33l6.2,2.78c.62-2.09.05-3.69-1.64-4.44-1.75-.79-3.42-.11-4.56,1.66Z"/><path class="uuid-72d183f5-1955-4b8c-af20-6ceb0c00c78a" d="m163.51,36.94c-1.5.7-3.19.59-4.75-.4-2.07-1.31-2.45-3.21-1.1-5.34l3.41-5.37-2.53-1.61.82-1.3,2.53,1.61,2.6-3.46,1.17.75-2.32,3.65,4.56,2.9-.82,1.3-4.56-2.9-3.31,5.2c-.89,1.4-.72,2.53.51,3.31,1.01.64,2.21.64,3.3.14l.48,1.53Z"/><path class="uuid-72d183f5-1955-4b8c-af20-6ceb0c00c78a" d="m165.31,38.67l1.62-.26c.02,1.38.73,2.72,2.08,3.88,1.53,1.31,2.94,1.48,3.72.57.59-.69.4-1.43-.54-2.5l-1.65-1.87c-1.49-1.69-1.67-3.18-.54-4.49,1.44-1.67,3.68-1.59,5.84.28,1.49,1.28,2.25,2.73,2.32,4.34l-1.62.22c0-1.24-.62-2.4-1.73-3.36-1.36-1.17-2.67-1.31-3.4-.46-.56.65-.39,1.41.56,2.48l1.65,1.87c1.49,1.69,1.65,3.19.51,4.52-1.49,1.73-3.77,1.63-6.18-.44-1.66-1.42-2.52-3.03-2.62-4.79Z"/><path class="uuid-72d183f5-1955-4b8c-af20-6ceb0c00c78a" d="m197.21,60.33l-9.8,6.33c-2.76,1.79-5.26,1.2-7.09-1.65-1.2-1.85-1.44-3.56-.72-5.22l1.53.47c-.52,1.28-.34,2.56.53,3.92,1.26,1.96,2.92,2.26,4.99.92l1.63-1.06c-1.7.16-3.06-.48-4.01-1.95-1.62-2.5-.68-5.39,2.42-7.4s6.12-1.67,7.74.83c.98,1.51.99,3.08,0,4.65l1.88-1.21.89,1.37Zm-6,1.82l.44-.29c2.02-1.3,2.69-3.57,1.59-5.28-1.13-1.75-3.26-1.9-5.57-.4-2.32,1.5-3.06,3.49-1.92,5.25,1.11,1.71,3.45,2.03,5.47.72Z"/><path class="uuid-72d183f5-1955-4b8c-af20-6ceb0c00c78a" d="m194.46,68.32c-2.27,1.2-3.04,3.11-2.07,5.2.59,1.29,1.56,2.03,3.12,2.32l-.4,1.55c-2.02-.37-3.35-1.42-4.19-3.25-1.44-3.14-.24-6.04,3.16-7.6,3.36-1.54,6.38-.6,7.72,2.32,1.31,2.86.03,5.58-3.37,7.15l-.37.17-3.6-7.85Zm1.38-.56l2.83,6.17c1.84-1.16,2.46-2.74,1.69-4.42-.8-1.74-2.5-2.34-4.53-1.75Z"/><path class="uuid-72d183f5-1955-4b8c-af20-6ceb0c00c78a" d="m198.88,90.29c-1.59-.46-2.79-1.66-3.31-3.43-.69-2.35.27-4.03,2.68-4.74l6.1-1.8-.85-2.88,1.47-.43.85,2.88,4.24-.9.39,1.34-4.14,1.22,1.52,5.18-1.47.43-1.52-5.18-5.92,1.74c-1.59.47-2.21,1.43-1.79,2.83.34,1.15,1.25,1.94,2.4,2.27l-.64,1.47Z"/><path class="uuid-72d183f5-1955-4b8c-af20-6ceb0c00c78a" d="m200.61,115.95h-1.54s.03-10.13.03-10.13h1.54s-.01,4.21-.01,4.21l8.45.03v-3.72s1.55,0,1.55,0l-.02,5.45-9.99-.03v4.2Zm14.4-6.79c.86,0,1.53.68,1.53,1.54,0,.86-.68,1.53-1.54,1.53-.86,0-1.53-.68-1.53-1.54,0-.86.68-1.53,1.54-1.53Z"/><path class="uuid-72d183f5-1955-4b8c-af20-6ceb0c00c78a" d="m205.28,129.31l-7.81-1.14.25-1.71,7.62,1.11c1.64.24,2.6-.37,2.81-1.82.29-1.99-1.32-3.78-3.64-4.12l-5.96-.87.25-1.71,11.4,1.66-.24,1.61-2.21-.32c1.55,1,2.19,2.43,1.93,4.23-.34,2.3-1.96,3.42-4.4,3.07Z"/><path class="uuid-72d183f5-1955-4b8c-af20-6ceb0c00c78a" d="m198.2,145.89c3.4,1.57,4.6,4.46,3.24,7.42-.85,1.83-2.28,2.81-4.23,2.91l-.19-1.59c1.38-.08,2.39-.72,2.96-1.94.95-2.05-.02-4.03-2.52-5.19s-4.64-.61-5.59,1.46c-.63,1.37-.37,2.69.75,3.92l-1.24,1.02c-1.54-1.69-1.89-3.57-.94-5.64,1.37-2.96,4.31-3.96,7.76-2.37Z"/><path class="uuid-72d183f5-1955-4b8c-af20-6ceb0c00c78a" d="m192.46,157.81c3.1,2.02,3.93,5.05,2.16,7.77s-4.88,3.18-7.98,1.16c-3.1-2.02-3.93-5.05-2.16-7.77s4.88-3.18,7.98-1.16Zm-4.85,7.44c2.29,1.49,4.49,1.29,5.68-.54,1.19-1.83.49-3.92-1.8-5.41s-4.49-1.29-5.68.54-.49,3.92,1.8,5.41Z"/><path class="uuid-72d183f5-1955-4b8c-af20-6ceb0c00c78a" d="m179.84,178.02l-5.93-5.22,1.14-1.3,5.78,5.09c1.24,1.09,2.38,1.11,3.35,0,1.33-1.51.96-3.89-.81-5.44l-4.52-3.98,1.14-1.3,8.65,7.61-1.08,1.23-1.68-1.47c.75,1.69.51,3.23-.69,4.6-1.54,1.75-3.51,1.81-5.36.17Z"/><path class="uuid-72d183f5-1955-4b8c-af20-6ceb0c00c78a" d="m164.98,183.27c-.23-1.64.38-3.22,1.78-4.42,1.86-1.59,3.79-1.4,5.42.52l4.12,4.84,2.28-1.95,1,1.17-2.28,1.95,2.55,3.5-1.06.9-2.8-3.29-4.11,3.5-1-1.17,4.11-3.5-4-4.69c-1.07-1.26-2.2-1.43-3.31-.49-.91.78-1.26,1.92-1.1,3.11h-1.6Z"/><path class="uuid-72d183f5-1955-4b8c-af20-6ceb0c00c78a" d="m157.62,194.8l-4.05-6.41,1.38-.87,1.18,1.87c-.21-1.86.53-3.29,2.22-4.35,2.19-1.38,4.22-1.05,5.4.82,1.18,1.87.56,3.76-1.67,5.17l-3.43,2.17.32.51c1.03,1.62,2.34,1.9,4.02.84,1.28-.81,2.04-1.94,2.16-3.24l1.62.28c-.19,1.68-1.21,3.21-2.98,4.32-2.54,1.6-4.69,1.26-6.17-1.1Zm.23-2.87l3.33-2.1c1.36-.86,1.75-1.95,1.07-3.03-.67-1.05-1.83-1.2-3.17-.35-1.93,1.22-2.41,3.42-1.22,5.48Z"/><path class="uuid-72d183f5-1955-4b8c-af20-6ceb0c00c78a" d="m153.2,195.11c1.53,3.42.54,6.38-2.44,7.71-1.84.82-3.56.62-5.1-.59l.91-1.32c1.09.85,2.28,1.03,3.5.49,2.06-.92,2.64-3.04,1.51-5.56-1.12-2.52-3.09-3.51-5.17-2.58-1.38.62-2.04,1.78-2.01,3.45l-1.6-.05c-.05-2.29.92-3.93,3.01-4.86,2.98-1.33,5.85-.14,7.39,3.32Z"/><path class="uuid-72d183f5-1955-4b8c-af20-6ceb0c00c78a" d="m129.64,199.54c.48-1.58,1.69-2.77,3.47-3.27,2.36-.67,4.03.31,4.71,2.73l1.73,6.12,2.89-.82.42,1.48-2.89.82.85,4.25-1.34.38-1.18-4.16-5.2,1.47-.42-1.48,5.2-1.47-1.68-5.94c-.45-1.59-1.4-2.22-2.81-1.83-1.16.33-1.95,1.22-2.3,2.37l-1.46-.66Z"/><path class="uuid-72d183f5-1955-4b8c-af20-6ceb0c00c78a" d="m110.22,7.61c1.39,2.46,3.44,4.51,5.9,5.9-2.46,1.39-4.51,3.44-5.9,5.9-1.39-2.46-3.44-4.51-5.9-5.9,2.46-1.39,4.51-3.44,5.9-5.9M110.22,0c0,7.46-6.05,13.51-13.51,13.51h0c7.46,0,13.51,6.05,13.51,13.51,0-7.46,6.05-13.51,13.51-13.51h0c-7.46,0-13.51-6.05-13.51-13.51h0Z"/><path class="uuid-72d183f5-1955-4b8c-af20-6ceb0c00c78a" d="m113.71,201.91c1.39,2.46,3.44,4.51,5.9,5.9-2.46,1.39-4.51,3.44-5.9,5.9-1.39-2.46-3.44-4.51-5.9-5.9,2.46-1.39,4.51-3.44,5.9-5.9m0-7.61h0c0,7.46-6.05,13.51-13.51,13.51h0c7.46,0,13.51,6.05,13.51,13.51h0c0-7.46,6.05-13.51,13.51-13.51h0c-7.46,0-13.51-6.05-13.51-13.51h0Z"/></svg>