<?xml version="1.0" encoding="UTF-8"?><svg id="uuid-718915dd-3729-4326-a049-8ee4188b1468" xmlns="http://www.w3.org/2000/svg" width="100" height="100" viewBox="0 0 100 100"><defs><style>.uuid-0c53d730-7016-40f9-ad86-84d584edc001,.uuid-89363be3-a37e-40ff-b8cc-4dbd0832d8ff{fill:#fff;}.uuid-0c53d730-7016-40f9-ad86-84d584edc001,.uuid-9ebe626b-9a7e-486c-80fb-18547bca2216{stroke:#1d1d1b;stroke-linejoin:round;}.uuid-89363be3-a37e-40ff-b8cc-4dbd0832d8ff,.uuid-a6703964-677b-432f-a110-73f7ef55491d{stroke-width:0px;}.uuid-9ebe626b-9a7e-486c-80fb-18547bca2216,.uuid-a6703964-677b-432f-a110-73f7ef55491d{fill:#1d1d1b;}</style></defs><path class="uuid-0c53d730-7016-40f9-ad86-84d584edc001" d="m49.85,7.65c17.07,12.2,34.14,24.41,51.21,36.61-33.93,0-67.86,0-101.79,0v54.12h101.79c-.17-15.56.17-36.08,0-51.64-17.05,8.94-33.85,18.62-50.9,27.56C36.09,65.7,13.33,52.87-.74,44.27,16.12,32.06,32.98,19.86,49.85,7.65Z"/><path class="uuid-9ebe626b-9a7e-486c-80fb-18547bca2216" d="m63.14,67.23c-21.29-7.65-42.59-15.31-63.88-22.96,16.97,10.01,33.93,20.03,50.9,30.04,4.33-2.36,8.66-4.72,12.99-7.08Z"/><path class="uuid-89363be3-a37e-40ff-b8cc-4dbd0832d8ff" d="m67.14,55.69c-1.47-3.75-4.47-6.74-8.22-8.22,3.75-1.48,6.74-4.47,8.22-8.22,1.48,3.75,4.47,6.74,8.22,8.22-3.75,1.48-6.74,4.47-8.22,8.22Z"/><path class="uuid-a6703964-677b-432f-a110-73f7ef55491d" d="m67.15,41.57c1.39,2.46,3.44,4.51,5.9,5.9-2.46,1.39-4.51,3.44-5.9,5.9-1.39-2.46-3.44-4.51-5.9-5.9,2.46-1.39,4.51-3.44,5.9-5.9m0-7.61h0c0,7.46-6.05,13.51-13.51,13.51h0c7.46,0,13.51,6.05,13.51,13.51h0c0-7.46,6.05-13.51,13.51-13.51h0c-7.46,0-13.51-6.05-13.51-13.51h0Z"/><path class="uuid-89363be3-a37e-40ff-b8cc-4dbd0832d8ff" d="m31.2,31.1c-.52-1.52-1.24-2.98-2.14-4.34l-.4-.6-.7.19c-1.57.43-3.07,1.06-4.46,1.87.69-1.7,1.13-3.51,1.3-5.39l.05-.57-.46-.33c-1.53-1.1-3.18-1.96-4.92-2.55,1.52-.52,2.98-1.24,4.34-2.14l.6-.4-.19-.7c-.43-1.57-1.06-3.07-1.87-4.46,1.7.69,3.51,1.13,5.39,1.3l.57.05.33-.46c1.1-1.53,1.96-3.18,2.55-4.92.52,1.52,1.24,2.98,2.14,4.34l.4.6.7-.19c1.57-.43,3.07-1.06,4.46-1.87-.69,1.7-1.13,3.51-1.3,5.39l-.05.57.46.33c1.53,1.1,3.18,1.96,4.92,2.55-1.52.52-2.98,1.24-4.34,2.14l-.6.4.19.7c.43,1.57,1.06,3.07,1.87,4.46-1.7-.69-3.51-1.13-5.39-1.3l-.57-.05-.33.46c-1.1,1.53-1.96,3.18-2.55,4.92Z"/><path class="uuid-a6703964-677b-432f-a110-73f7ef55491d" d="m31.2,10.26c.38.78.82,1.55,1.31,2.28l.8,1.2,1.39-.38c.85-.23,1.68-.52,2.49-.86-.29,1.08-.48,2.19-.59,3.33l-.1,1.14.92.67c.92.67,1.89,1.25,2.89,1.74-.78.38-1.55.82-2.28,1.31l-1.2.8.38,1.39c.23.85.52,1.68.86,2.49-1.08-.29-2.19-.48-3.33-.59l-1.14-.1-.67.92c-.67.92-1.25,1.89-1.74,2.89-.38-.78-.82-1.55-1.31-2.28l-.8-1.2-1.39.38c-.85.23-1.68.52-2.49.86.29-1.08.48-2.19.59-3.33l.1-1.14-.92-.67c-.92-.67-1.89-1.25-2.89-1.74.78-.38,1.55-.82,2.28-1.31l1.2-.8-.38-1.39c-.23-.85-.52-1.68-.86-2.49,1.08.29,2.19.48,3.33.59l1.14.1.67-.92c.67-.92,1.25-1.89,1.74-2.89m0-8.65c0,3.88-1.26,7.46-3.37,10.38-3.59-.33-7.11-1.73-10.04-4.27h0c2.74,2.39,4.57,5.43,5.47,8.69-2.82,1.87-6.19,2.97-9.83,2.97h0c3.88,0,7.46,1.26,10.38,3.37-.33,3.59-1.73,7.11-4.27,10.04h0c2.39-2.74,5.43-4.57,8.69-5.47,1.87,2.82,2.97,6.19,2.97,9.83,0-3.88,1.26-7.46,3.37-10.38,3.59.33,7.11,1.73,10.04,4.27-2.74-2.39-4.57-5.43-5.47-8.69,2.82-1.87,6.19-2.97,9.83-2.97h0c-3.88,0-7.46-1.26-10.38-3.37.33-3.59,1.73-7.11,4.27-10.04-2.39,2.74-5.43,4.57-8.69,5.47-1.87-2.82-2.97-6.19-2.97-9.83h0Z"/></svg>