<?xml version="1.0" encoding="UTF-8"?><svg id="uuid-0748a52f-bf4b-428d-afb5-8f88fe0dc1c7" xmlns="http://www.w3.org/2000/svg" width="100" height="100" viewBox="0 0 100 100"><defs><style>.uuid-d8aca1d9-ce6b-43bc-8b64-27998909c68b,.uuid-6cdeff5d-727b-4f2b-8a4b-5236e06a7db5{fill:#fff;}.uuid-d8aca1d9-ce6b-43bc-8b64-27998909c68b,.uuid-94cbba75-7371-4f01-91bd-7cb24372e110{stroke:#1d1d1b;stroke-linejoin:round;stroke-width:.98px;}.uuid-6cdeff5d-727b-4f2b-8a4b-5236e06a7db5,.uuid-ff7ab524-6c3a-4725-a081-f99b854783f3{stroke-width:0px;}.uuid-ff7ab524-6c3a-4725-a081-f99b854783f3,.uuid-94cbba75-7371-4f01-91bd-7cb24372e110{fill:#1d1d1b;}</style></defs><path class="uuid-d8aca1d9-ce6b-43bc-8b64-27998909c68b" d="m49.67,8.42c16.76,11.98,33.52,23.97,50.28,35.95-33.32,0-66.64,0-99.95,0v53.15h99.95c-.16-15.28.16-35.43,0-50.71-16.74,8.78-33.24,18.28-49.98,27.06C36.16,65.42,13.81,52.82,0,44.37c16.56-11.98,33.12-23.97,49.67-35.95Z"/><path class="uuid-94cbba75-7371-4f01-91bd-7cb24372e110" d="m62.73,66.91c-20.91-7.51-41.82-15.03-62.73-22.54,16.66,9.83,33.32,19.67,49.98,29.5,4.25-2.32,8.5-4.64,12.75-6.95Z"/><path class="uuid-6cdeff5d-727b-4f2b-8a4b-5236e06a7db5" d="m66.66,55.59c-1.45-3.68-4.39-6.62-8.07-8.07,3.68-1.45,6.62-4.39,8.07-8.07,1.45,3.68,4.39,6.62,8.07,8.07-3.68,1.45-6.62,4.39-8.07,8.07Z"/><path class="uuid-ff7ab524-6c3a-4725-a081-f99b854783f3" d="m66.66,41.72c1.37,2.42,3.38,4.43,5.79,5.79-2.42,1.37-4.43,3.38-5.79,5.79-1.37-2.42-3.38-4.43-5.79-5.79,2.42-1.37,4.43-3.38,5.79-5.79m0-7.48h0c0,7.33-5.94,13.27-13.27,13.27h0c7.33,0,13.27,5.94,13.27,13.27h0c0-7.33,5.94-13.27,13.27-13.27h0c-7.33,0-13.27-5.94-13.27-13.27h0Z"/><path class="uuid-6cdeff5d-727b-4f2b-8a4b-5236e06a7db5" d="m31.37,31.44c-.51-1.49-1.21-2.93-2.1-4.26l-.39-.59-.68.19c-1.55.42-3.02,1.04-4.38,1.83.68-1.67,1.11-3.45,1.28-5.29l.05-.56-.45-.33c-1.5-1.08-3.12-1.92-4.83-2.51,1.49-.51,2.93-1.21,4.26-2.1l.59-.39-.19-.68c-.42-1.55-1.04-3.02-1.83-4.38,1.67.68,3.45,1.11,5.29,1.28l.56.05.33-.45c1.08-1.5,1.92-3.12,2.51-4.83.51,1.5,1.21,2.93,2.1,4.26l.39.59.68-.19c1.55-.42,3.02-1.04,4.38-1.83-.68,1.67-1.11,3.45-1.28,5.29l-.05.56.45.33c1.5,1.08,3.12,1.92,4.83,2.51-1.49.51-2.93,1.21-4.26,2.1l-.59.39.19.68c.42,1.55,1.04,3.02,1.83,4.38-1.67-.68-3.45-1.11-5.29-1.28l-.56-.05-.33.45c-1.08,1.5-1.92,3.12-2.51,4.83Z"/><path class="uuid-ff7ab524-6c3a-4725-a081-f99b854783f3" d="m31.36,10.98c.38.77.81,1.52,1.29,2.24l.79,1.18,1.37-.38c.84-.23,1.65-.51,2.44-.85-.28,1.06-.47,2.15-.58,3.27l-.1,1.11.91.66c.91.65,1.86,1.23,2.84,1.71-.77.38-1.52.81-2.24,1.29l-1.18.79.38,1.37c.23.84.51,1.65.85,2.44-1.06-.28-2.15-.47-3.27-.58l-1.11-.1-.66.91c-.65.91-1.23,1.86-1.71,2.84-.38-.77-.81-1.52-1.29-2.24l-.79-1.18-1.37.38c-.84.23-1.65.51-2.44.85.28-1.06.47-2.15.58-3.27l.1-1.11-.91-.66c-.91-.65-1.86-1.23-2.84-1.71.77-.38,1.52-.81,2.24-1.29l1.18-.79-.38-1.37c-.23-.84-.51-1.65-.85-2.44,1.06.28,2.15.47,3.27.58l1.11.1.66-.91c.65-.91,1.23-1.86,1.71-2.84m0-8.5c0,3.81-1.23,7.32-3.31,10.19-3.52-.32-6.98-1.69-9.86-4.19h0c2.69,2.34,4.49,5.33,5.37,8.53-2.76,1.84-6.08,2.92-9.65,2.92h0c3.81,0,7.32,1.23,10.19,3.31-.32,3.52-1.69,6.98-4.19,9.86h0c2.34-2.69,5.33-4.49,8.53-5.37,1.84,2.76,2.92,6.08,2.92,9.65,0-3.81,1.23-7.32,3.31-10.19,3.52.32,6.98,1.69,9.86,4.19-2.69-2.34-4.49-5.33-5.37-8.53,2.76-1.84,6.08-2.92,9.65-2.92h0c-3.81,0-7.32-1.23-10.19-3.31.32-3.52,1.69-6.98,4.19-9.86-2.34,2.69-5.33,4.49-8.53,5.37-1.84-2.76-2.92-6.08-2.92-9.65h0Z"/></svg>