<?xml version="1.0" encoding="UTF-8"?><svg id="uuid-14520708-5d48-46d1-9838-c7856820cdae" xmlns="http://www.w3.org/2000/svg" width="155" height="30" viewBox="0 0 155 30"><defs><style>.uuid-394400ab-68fb-4a93-817d-71ba046da949{fill:none;}.uuid-394400ab-68fb-4a93-817d-71ba046da949,.uuid-d9f1eea1-3988-467a-9663-15a11bb4cbe9{stroke:#070b0a;stroke-miterlimit:10;}.uuid-d9f1eea1-3988-467a-9663-15a11bb4cbe9{fill:#070b0a;}</style></defs><path class="uuid-d9f1eea1-3988-467a-9663-15a11bb4cbe9" d="m15.27,29.6h0c0-8.06-6.54-14.6-14.6-14.6h0c8.06,0,14.6-6.54,14.6-14.6h0c0,8.06,6.54,14.6,14.6,14.6h0c-8.06,0-14.6,6.54-14.6,14.6Z"/><path class="uuid-d9f1eea1-3988-467a-9663-15a11bb4cbe9" d="m46.39,29.6h0c0-8.06-6.54-14.6-14.6-14.6h0c8.06,0,14.6-6.54,14.6-14.6h0c0,8.06,6.54,14.6,14.6,14.6h0c-8.06,0-14.6,6.54-14.6,14.6Z"/><path class="uuid-394400ab-68fb-4a93-817d-71ba046da949" d="m77.5,29.6h0c0-8.06-6.54-14.6-14.6-14.6h0c8.06,0,14.6-6.54,14.6-14.6h0c0,8.06,6.54,14.6,14.6,14.6h0c-8.06,0-14.6,6.54-14.6,14.6Z"/><path class="uuid-394400ab-68fb-4a93-817d-71ba046da949" d="m108.61,29.6h0c0-8.06-6.54-14.6-14.6-14.6h0c8.06,0,14.6-6.54,14.6-14.6h0c0,8.06,6.54,14.6,14.6,14.6h0c-8.06,0-14.6,6.54-14.6,14.6Z"/><path class="uuid-394400ab-68fb-4a93-817d-71ba046da949" d="m139.73,29.6h0c0-8.06-6.54-14.6-14.6-14.6h0c8.06,0,14.6-6.54,14.6-14.6h0c0,8.06,6.54,14.6,14.6,14.6h0c-8.06,0-14.6,6.54-14.6,14.6Z"/></svg>