<?xml version="1.0" encoding="UTF-8"?><svg id="uuid-24d72561-c627-4542-85e5-c3193ef3de42" xmlns="http://www.w3.org/2000/svg" width="155" height="30" viewBox="0 0 155 30"><defs><style>.uuid-2227c9b0-1228-499f-88ac-9a306c374247{fill:none;}.uuid-2227c9b0-1228-499f-88ac-9a306c374247,.uuid-d2a12b80-388c-452c-b00a-727a175a251d{stroke:#070b0a;stroke-linejoin:round;stroke-width:.8px;}.uuid-d2a12b80-388c-452c-b00a-727a175a251d{fill:#070b0a;}</style></defs><path class="uuid-d2a12b80-388c-452c-b00a-727a175a251d" d="m15.27,29.6h0c0-8.06-6.54-14.6-14.6-14.6h0c8.06,0,14.6-6.54,14.6-14.6h0c0,8.06,6.54,14.6,14.6,14.6h0c-8.06,0-14.6,6.54-14.6,14.6Z"/><path class="uuid-d2a12b80-388c-452c-b00a-727a175a251d" d="m46.39,29.6h0c0-8.06-6.54-14.6-14.6-14.6h0c8.06,0,14.6-6.54,14.6-14.6h0c0,8.06,6.54,14.6,14.6,14.6h0c-8.06,0-14.6,6.54-14.6,14.6Z"/><path class="uuid-d2a12b80-388c-452c-b00a-727a175a251d" d="m77.5,29.6h0c0-8.06-6.54-14.6-14.6-14.6h0c8.06,0,14.6-6.54,14.6-14.6h0c0,8.06,6.54,14.6,14.6,14.6h0c-8.06,0-14.6,6.54-14.6,14.6Z"/><path class="uuid-2227c9b0-1228-499f-88ac-9a306c374247" d="m108.61,29.6h0c0-8.06-6.54-14.6-14.6-14.6h0c8.06,0,14.6-6.54,14.6-14.6h0c0,8.06,6.54,14.6,14.6,14.6h0c-8.06,0-14.6,6.54-14.6,14.6Z"/><path class="uuid-2227c9b0-1228-499f-88ac-9a306c374247" d="m139.73,29.6h0c0-8.06-6.54-14.6-14.6-14.6h0c8.06,0,14.6-6.54,14.6-14.6h0c0,8.06,6.54,14.6,14.6,14.6h0c-8.06,0-14.6,6.54-14.6,14.6Z"/></svg>