<?xml version="1.0" encoding="UTF-8"?><svg id="uuid-ccbb1913-e90d-4fa2-9517-dbb620999cca" xmlns="http://www.w3.org/2000/svg" width="155" height="30" viewBox="0 0 155 30"><defs><style>.uuid-b4a84b5a-570c-43e0-adda-7e57b6141702{fill:#070b0a;stroke:#070b0a;stroke-linejoin:round;stroke-width:.8px;}</style></defs><path class="uuid-b4a84b5a-570c-43e0-adda-7e57b6141702" d="m15.27,29.6h0c0-8.06-6.54-14.6-14.6-14.6h0c8.06,0,14.6-6.54,14.6-14.6h0c0,8.06,6.54,14.6,14.6,14.6h0c-8.06,0-14.6,6.54-14.6,14.6Z"/><path class="uuid-b4a84b5a-570c-43e0-adda-7e57b6141702" d="m46.39,29.6h0c0-8.06-6.54-14.6-14.6-14.6h0c8.06,0,14.6-6.54,14.6-14.6h0c0,8.06,6.54,14.6,14.6,14.6h0c-8.06,0-14.6,6.54-14.6,14.6Z"/><path class="uuid-b4a84b5a-570c-43e0-adda-7e57b6141702" d="m77.5,29.6h0c0-8.06-6.54-14.6-14.6-14.6h0c8.06,0,14.6-6.54,14.6-14.6h0c0,8.06,6.54,14.6,14.6,14.6h0c-8.06,0-14.6,6.54-14.6,14.6Z"/><path class="uuid-b4a84b5a-570c-43e0-adda-7e57b6141702" d="m108.61,29.6h0c0-8.06-6.54-14.6-14.6-14.6h0c8.06,0,14.6-6.54,14.6-14.6h0c0,8.06,6.54,14.6,14.6,14.6h0c-8.06,0-14.6,6.54-14.6,14.6Z"/><path class="uuid-b4a84b5a-570c-43e0-adda-7e57b6141702" d="m139.73,29.6h0c0-8.06-6.54-14.6-14.6-14.6h0c8.06,0,14.6-6.54,14.6-14.6h0c0,8.06,6.54,14.6,14.6,14.6h0c-8.06,0-14.6,6.54-14.6,14.6Z"/></svg>