<?xml version="1.0" encoding="UTF-8"?><svg id="uuid-10047131-5324-4145-bfb3-a0622f8653de" xmlns="http://www.w3.org/2000/svg" width="155" height="30" viewBox="0 0 155 30"><defs><style>.uuid-b575bdb4-a53f-4604-9953-39b0b29d41e8{fill:none;}.uuid-b575bdb4-a53f-4604-9953-39b0b29d41e8,.uuid-2879f68a-8a5e-47db-85ce-e00ac0f97a84{stroke:#070b0a;stroke-linejoin:round;stroke-width:.8px;}.uuid-2879f68a-8a5e-47db-85ce-e00ac0f97a84{fill:#070b0a;}</style></defs><path class="uuid-2879f68a-8a5e-47db-85ce-e00ac0f97a84" d="m15.27,29.6h0c0-8.06-6.54-14.6-14.6-14.6h0c8.06,0,14.6-6.54,14.6-14.6h0c0,8.06,6.54,14.6,14.6,14.6h0c-8.06,0-14.6,6.54-14.6,14.6Z"/><path class="uuid-2879f68a-8a5e-47db-85ce-e00ac0f97a84" d="m46.39,29.6h0c0-8.06-6.54-14.6-14.6-14.6h0c8.06,0,14.6-6.54,14.6-14.6h0c0,8.06,6.54,14.6,14.6,14.6h0c-8.06,0-14.6,6.54-14.6,14.6Z"/><path class="uuid-2879f68a-8a5e-47db-85ce-e00ac0f97a84" d="m77.5,29.6h0c0-8.06-6.54-14.6-14.6-14.6h0c8.06,0,14.6-6.54,14.6-14.6h0c0,8.06,6.54,14.6,14.6,14.6h0c-8.06,0-14.6,6.54-14.6,14.6Z"/><path class="uuid-2879f68a-8a5e-47db-85ce-e00ac0f97a84" d="m108.61,29.6h0c0-8.06-6.54-14.6-14.6-14.6h0c8.06,0,14.6-6.54,14.6-14.6h0c0,8.06,6.54,14.6,14.6,14.6h0c-8.06,0-14.6,6.54-14.6,14.6Z"/><path class="uuid-b575bdb4-a53f-4604-9953-39b0b29d41e8" d="m139.73,29.6h0c0-8.06-6.54-14.6-14.6-14.6h0c8.06,0,14.6-6.54,14.6-14.6h0c0,8.06,6.54,14.6,14.6,14.6h0c-8.06,0-14.6,6.54-14.6,14.6Z"/></svg>