<?xml version="1.0" encoding="UTF-8"?><svg id="uuid-811abef6-241f-46cd-92c6-838aa74b2a92" xmlns="http://www.w3.org/2000/svg" width="155" height="30" viewBox="0 0 155 30"><defs><style>.uuid-6aaf9bdd-d997-45fa-b317-2020c6fa5752{fill:none;}.uuid-6aaf9bdd-d997-45fa-b317-2020c6fa5752,.uuid-79a70d14-ed39-4b6d-b8d3-54536ad06c74{stroke:#070b0a;stroke-miterlimit:10;}.uuid-79a70d14-ed39-4b6d-b8d3-54536ad06c74{fill:#070b0a;}</style></defs><path class="uuid-79a70d14-ed39-4b6d-b8d3-54536ad06c74" d="m15.27,29.6h0c0-8.06-6.54-14.6-14.6-14.6h0c8.06,0,14.6-6.54,14.6-14.6h0c0,8.06,6.54,14.6,14.6,14.6h0c-8.06,0-14.6,6.54-14.6,14.6Z"/><path class="uuid-6aaf9bdd-d997-45fa-b317-2020c6fa5752" d="m46.39,29.6h0c0-8.06-6.54-14.6-14.6-14.6h0c8.06,0,14.6-6.54,14.6-14.6h0c0,8.06,6.54,14.6,14.6,14.6h0c-8.06,0-14.6,6.54-14.6,14.6Z"/><path class="uuid-6aaf9bdd-d997-45fa-b317-2020c6fa5752" d="m77.5,29.6h0c0-8.06-6.54-14.6-14.6-14.6h0c8.06,0,14.6-6.54,14.6-14.6h0c0,8.06,6.54,14.6,14.6,14.6h0c-8.06,0-14.6,6.54-14.6,14.6Z"/><path class="uuid-6aaf9bdd-d997-45fa-b317-2020c6fa5752" d="m108.61,29.6h0c0-8.06-6.54-14.6-14.6-14.6h0c8.06,0,14.6-6.54,14.6-14.6h0c0,8.06,6.54,14.6,14.6,14.6h0c-8.06,0-14.6,6.54-14.6,14.6Z"/><path class="uuid-6aaf9bdd-d997-45fa-b317-2020c6fa5752" d="m139.73,29.6h0c0-8.06-6.54-14.6-14.6-14.6h0c8.06,0,14.6-6.54,14.6-14.6h0c0,8.06,6.54,14.6,14.6,14.6h0c-8.06,0-14.6,6.54-14.6,14.6Z"/></svg>